<svg xmlns="http://www.w3.org/2000/svg" width="120" height="120" viewBox="0 0 120 120"><rect width="100%" height="100%" fill="#00ffff"/><path fill="#0a0a0a" d="M42.6 65.07h13.8l-5.28-14.43q-.39-.96-.81-2.28t-.84-2.85q-.39 1.53-.81 2.87-.42 1.33-.81 2.32zm11.01-27 17.04 43.38h-6.24q-1.05 0-1.71-.53-.66-.52-.99-1.3l-3.24-8.85H40.5l-3.24 8.85q-.24.69-.93 1.26t-1.71.57h-6.3l17.07-43.38zm38.07 0v27.96q0 3.66-.9 6.6t-2.68 5.01q-1.79 2.07-4.46 3.18t-6.21 1.11q-1.62 0-3.18-.2-1.56-.19-3.27-.61.09-1.2.21-2.4t.21-2.4q.09-.66.53-1.06.43-.41 1.24-.41.51 0 1.34.21.82.21 2.08.21 1.71 0 3.03-.49 1.32-.5 2.21-1.58.88-1.08 1.33-2.8.45-1.73.45-4.19V38.07z"/></svg>