<svg xmlns="http://www.w3.org/2000/svg" width="1200" height="630" viewBox="0 0 1200 630"><rect width="100%" height="100%" fill="#0a0a0a"/><path fill="#00ffff" d="M253.88 321.995h17.02l-6.51-17.8q-.48-1.18-1-2.81t-1.04-3.52q-.48 1.89-1 3.54-.51 1.64-.99 2.87zm13.58-33.3 21.02 53.5h-7.7q-1.3 0-2.11-.65-.81-.64-1.22-1.61l-4-10.91h-22.16l-4 10.91q-.29.85-1.14 1.56-.85.7-2.11.7h-7.77l21.05-53.5zm34.26 53.5h-9.14v-37.96h5.59q1.78 0 2.33 1.66l.59 2.82q1-1.11 2.09-2.04t2.33-1.59q1.24-.67 2.67-1.06 1.42-.38 3.12-.38 3.59 0 5.91 1.94 2.31 1.94 3.46 5.16.88-1.89 2.22-3.24 1.33-1.35 2.92-2.2t3.38-1.26q1.8-.4 3.61-.4 3.15 0 5.59.96t4.11 2.81q1.66 1.85 2.53 4.51.87 2.67.87 6.11v24.16h-9.14v-24.16q0-3.63-1.59-5.46t-4.66-1.83q-1.41 0-2.61.48t-2.11 1.39-1.42 2.27q-.52 1.37-.52 3.15v24.16h-9.18v-24.16q0-3.81-1.53-5.55-1.54-1.74-4.5-1.74-2 0-3.72.98t-3.2 2.68zm53.13-37.96h9.18v37.96h-9.18zm10.44-11.06q0 1.18-.48 2.22-.48 1.03-1.28 1.81t-1.87 1.24-2.29.46q-1.19 0-2.24-.46-1.06-.46-1.83-1.24-.78-.78-1.24-1.81-.46-1.04-.46-2.22 0-1.23.46-2.3t1.24-1.85q.77-.78 1.83-1.24 1.05-.46 2.24-.46 1.22 0 2.29.46t1.87 1.24 1.28 1.85.48 2.3m15.98 12.72.63 3q1.15-1.15 2.42-2.13 1.28-.98 2.7-1.66 1.43-.69 3.06-1.08 1.63-.38 3.55-.38 3.11 0 5.51 1.05 2.41 1.05 4.02 2.96t2.44 4.55q.83 2.65.83 5.83v24.16h-9.14v-24.16q0-3.48-1.59-5.38-1.59-1.91-4.85-1.91-2.36 0-4.44 1.07-2.07 1.08-3.92 2.93v27.45h-9.14v-37.96h5.59q1.78 0 2.33 1.66m53.87 26.5v-6.41q-3.96.19-6.66.69t-4.33 1.28q-1.62.77-2.33 1.81-.7 1.03-.7 2.26 0 2.4 1.42 3.44 1.43 1.03 3.72 1.03 2.82 0 4.87-1.02 2.05-1.01 4.01-3.08m-19.31-19.95-1.63-2.92q6.55-5.99 15.76-5.99 3.33 0 5.96 1.09t4.44 3.03 2.76 4.64q.94 2.7.94 5.92v23.98h-4.14q-1.3 0-2-.39t-1.11-1.57l-.82-2.74q-1.44 1.3-2.81 2.28t-2.85 1.64q-1.48.67-3.16 1.02t-3.72.35q-2.4 0-4.44-.65-2.03-.64-3.51-1.94-1.48-1.29-2.3-3.22-.81-1.92-.81-4.47 0-1.45.48-2.87.48-1.43 1.57-2.72 1.09-1.3 2.83-2.44 1.74-1.15 4.28-2 2.53-.85 5.9-1.39 3.36-.53 7.69-.65v-2.22q0-3.81-1.62-5.64-1.63-1.83-4.7-1.83-2.22 0-3.69.52-1.46.52-2.57 1.16-1.11.65-2.01 1.17-.91.52-2.02.52-.96 0-1.63-.5-.66-.5-1.07-1.17m76.63-23.75v34.48q0 4.52-1.11 8.14-1.11 3.63-3.32 6.18-2.2 2.55-5.49 3.92t-7.66 1.37q-2 0-3.92-.24t-4.03-.76q.11-1.48.26-2.96.14-1.48.25-2.96.12-.81.65-1.31.54-.5 1.54-.5.63 0 1.64.26 1.02.26 2.58.26 2.1 0 3.73-.61t2.72-1.94q1.09-1.34 1.65-3.46.55-2.13.55-5.17v-34.7zm30 43.7v-6.41q-3.96.19-6.66.69t-4.33 1.28q-1.62.77-2.33 1.81-.7 1.03-.7 2.26 0 2.4 1.42 3.44 1.43 1.03 3.72 1.03 2.82 0 4.87-1.02 2.05-1.01 4.01-3.08m-19.31-19.95-1.63-2.92q6.55-5.99 15.76-5.99 3.33 0 5.96 1.09t4.44 3.03 2.76 4.64q.94 2.7.94 5.92v23.98h-4.14q-1.3 0-2-.39t-1.11-1.57l-.82-2.74q-1.44 1.3-2.81 2.28t-2.85 1.64q-1.48.67-3.16 1.02t-3.72.35q-2.4 0-4.44-.65-2.03-.64-3.51-1.94-1.48-1.29-2.3-3.22-.81-1.92-.81-4.47 0-1.45.48-2.87.48-1.43 1.57-2.72 1.09-1.3 2.83-2.44 1.74-1.15 4.28-2 2.53-.85 5.9-1.39 3.36-.53 7.69-.65v-2.22q0-3.81-1.62-5.64-1.63-1.83-4.7-1.83-2.22 0-3.69.52-1.46.52-2.57 1.16-1.11.65-2.01 1.17-.91.52-2.02.52-.96 0-1.63-.5-.66-.5-1.07-1.17m63.82-8.21h7.22l-15.06 37.96h-8.29l-15.06-37.96h7.55q1.04 0 1.72.48.69.48.91 1.22l7.32 20.28q.6 1.77 1.04 3.47.44 1.71.78 3.41.37-1.7.81-3.41.45-1.7 1.07-3.47l7.48-20.28q.26-.74.92-1.22.67-.48 1.59-.48m19.28 14.61h17.24q0-1.77-.5-3.35-.5-1.57-1.49-2.75-1-1.19-2.54-1.87-1.53-.68-3.57-.68-3.96 0-6.23 2.25-2.28 2.26-2.91 6.4m23.31 5.52h-23.49q.22 2.92 1.03 5.05.82 2.12 2.15 3.51t3.16 2.07q1.83.69 4.05.69t3.83-.52 2.81-1.15q1.21-.63 2.11-1.14.91-.52 1.76-.52 1.15 0 1.7.85l2.63 3.33q-1.52 1.78-3.4 2.98-1.89 1.2-3.94 1.92-2.06.72-4.19 1.02-2.12.29-4.12.29-3.96 0-7.36-1.31-3.41-1.31-5.92-3.88-2.52-2.57-3.96-6.37-1.45-3.79-1.45-8.78 0-3.89 1.26-7.31t3.61-5.96q2.35-2.53 5.73-4.01 3.39-1.48 7.65-1.48 3.58 0 6.62 1.14 3.03 1.15 5.22 3.35 2.18 2.2 3.42 5.4t1.24 7.31q0 2.07-.45 2.79-.44.73-1.7.73m32.82 6.58v-17.02q-1.55-1.88-3.39-2.66-1.83-.78-3.94-.78-2.07 0-3.73.78-1.67.78-2.85 2.35-1.19 1.57-1.81 3.99-.63 2.43-.63 5.72 0 3.33.53 5.64.54 2.32 1.54 3.78t2.44 2.11q1.44.64 3.22.64 2.85 0 4.85-1.18 1.99-1.18 3.77-3.37m0-43.73h9.14v54.98h-5.59q-1.81 0-2.29-1.66l-.78-3.67q-2.29 2.63-5.27 4.26-2.98 1.62-6.94 1.62-3.11 0-5.7-1.29t-4.46-3.76q-1.86-2.46-2.88-6.08-1.02-3.63-1.02-8.29 0-4.22 1.15-7.84 1.15-3.63 3.29-6.29 2.15-2.67 5.14-4.17 3-1.49 6.74-1.49 3.18 0 5.44.99 2.25 1 4.03 2.71zm47.55 28.38h7.43q2.74 0 4.78-.69 2.03-.68 3.38-1.96 1.35-1.27 2.02-3.11.66-1.83.66-4.09 0-2.14-.66-3.88-.67-1.74-2-2.96t-3.37-1.87q-2.03-.65-4.81-.65h-7.43zm-9.96-26.9h17.39q5.37 0 9.29 1.26 3.92 1.25 6.47 3.51 2.56 2.26 3.8 5.4 1.24 3.15 1.24 6.88 0 3.89-1.3 7.13-1.29 3.24-3.88 5.57t-6.5 3.62q-3.9 1.3-9.12 1.3h-7.43v18.83h-9.96zm61.16 14.95q4.22 0 7.68 1.37 3.46 1.36 5.92 3.88t3.79 6.14q1.34 3.63 1.34 8.11 0 4.51-1.34 8.14-1.33 3.62-3.79 6.17-2.46 2.56-5.92 3.93-3.46 1.36-7.68 1.36-4.25 0-7.73-1.36-3.48-1.37-5.94-3.93-2.46-2.55-3.81-6.17-1.35-3.63-1.35-8.14 0-4.48 1.35-8.11 1.35-3.62 3.81-6.14t5.94-3.88q3.48-1.37 7.73-1.37m0 32.08q4.74 0 7.01-3.19 2.28-3.18 2.28-9.32t-2.28-9.36q-2.27-3.22-7.01-3.22-4.81 0-7.12 3.24-2.31 3.23-2.31 9.34 0 6.1 2.31 9.3 2.31 3.21 7.12 3.21m33.78-29.2.56 4.29q1.78-3.4 4.22-5.34t5.77-1.94q2.63 0 4.22 1.14l-.59 6.85q-.19.66-.54.94t-.94.28q-.56 0-1.65-.19-1.09-.18-2.13-.18-1.52 0-2.7.44-1.18.45-2.13 1.28-.94.83-1.66 2.02-.72 1.18-1.35 2.7v23.38h-9.14v-37.96h5.36q1.41 0 1.96.5.56.5.74 1.79m32.19 36.26q-4.95 0-7.6-2.79-2.64-2.8-2.64-7.72v-21.2h-3.89q-.74 0-1.26-.48t-.52-1.44v-3.63l6.11-1 1.92-10.36q.19-.74.71-1.14.51-.41 1.33-.41h4.73v11.95h10.14v6.51h-10.14v20.58q0 1.77.87 2.77t2.39 1q.85 0 1.42-.2.58-.21 1-.43.43-.22.76-.43.34-.2.67-.2.41 0 .66.2.26.21.56.62l2.74 4.44q-2 1.66-4.59 2.51t-5.37.85m26.68-.59h-9.14v-31.08l-3.29-.52q-1.07-.22-1.72-.76-.65-.53-.65-1.53v-3.74h5.66v-2.81q0-3.26.98-5.85t2.81-4.4q1.84-1.81 4.46-2.77 2.63-.97 5.92-.97 2.63 0 4.89.71l-.19 4.58q-.03.52-.29.84-.26.31-.69.48-.42.16-.98.22-.55.06-1.18.06-1.63 0-2.91.35-1.27.35-2.16 1.22t-1.35 2.29q-.46 1.43-.46 3.54v2.51h9.87v6.51h-9.58zm31.53-38.55q4.21 0 7.67 1.37 3.46 1.36 5.92 3.88t3.8 6.14q1.33 3.63 1.33 8.11 0 4.51-1.33 8.14-1.34 3.62-3.8 6.17-2.46 2.56-5.92 3.93-3.46 1.36-7.67 1.36-4.26 0-7.74-1.36-3.48-1.37-5.94-3.93-2.46-2.55-3.81-6.17-1.35-3.63-1.35-8.14 0-4.48 1.35-8.11 1.35-3.62 3.81-6.14t5.94-3.88q3.48-1.37 7.74-1.37m0 32.08q4.73 0 7.01-3.19 2.27-3.18 2.27-9.32t-2.27-9.36q-2.28-3.22-7.01-3.22-4.81 0-7.13 3.24-2.31 3.23-2.31 9.34 0 6.1 2.31 9.3 2.32 3.21 7.13 3.21m25.82-48.51h9.14v54.98h-9.14zm18.58 17.02h9.17v37.96h-9.17zm10.43-11.06q0 1.18-.48 2.22-.48 1.03-1.28 1.81-.79.78-1.87 1.24-1.07.46-2.29.46-1.18 0-2.24-.46-1.05-.46-1.83-1.24t-1.24-1.81q-.46-1.04-.46-2.22 0-1.23.46-2.3t1.24-1.85 1.83-1.24q1.06-.46 2.24-.46 1.22 0 2.29.46 1.08.46 1.87 1.24.8.78 1.28 1.85t.48 2.3m24.86 10.47q4.22 0 7.68 1.37 3.46 1.36 5.92 3.88t3.79 6.14q1.34 3.63 1.34 8.11 0 4.51-1.34 8.14-1.33 3.62-3.79 6.17-2.46 2.56-5.92 3.93-3.46 1.36-7.68 1.36-4.25 0-7.73-1.36-3.48-1.37-5.94-3.93-2.46-2.55-3.81-6.17-1.35-3.63-1.35-8.14 0-4.48 1.35-8.11 1.35-3.62 3.81-6.14t5.94-3.88q3.48-1.37 7.73-1.37m0 32.08q4.74 0 7.01-3.19 2.28-3.18 2.28-9.32t-2.28-9.36q-2.27-3.22-7.01-3.22-4.81 0-7.12 3.24-2.31 3.23-2.31 9.34 0 6.1 2.31 9.3 2.31 3.21 7.12 3.21"/></svg>