<svg xmlns="http://www.w3.org/2000/svg" width="800" height="600" viewBox="0 0 800 600"><rect width="100%" height="100%" fill="#00ffff"/><path fill="#0a0a0a" d="M200.505 300q0 4.93-1.65 9.05-1.64 4.12-4.61 7.1-2.98 2.97-7.17 4.62-4.18 1.64-9.3 1.64h-17.08v-44.83h17.08q5.12 0 9.3 1.66 4.19 1.66 7.17 4.62 2.97 2.96 4.61 7.09 1.65 4.12 1.65 9.05m-8.56 0q0-3.69-.97-6.62-.98-2.93-2.83-4.96-1.84-2.03-4.46-3.12-2.62-1.08-5.91-1.08h-8.71v31.56h8.71q3.29 0 5.91-1.09 2.62-1.08 4.46-3.11 1.85-2.04 2.83-4.96.97-2.93.97-6.62m20.74 2.85h14.45q0-1.49-.42-2.81-.42-1.31-1.26-2.31-.83-.99-2.12-1.56-1.29-.58-2.99-.58-3.32 0-5.23 1.9-1.9 1.89-2.43 5.36m19.53 4.62h-19.68q.18 2.45.86 4.23.69 1.78 1.8 2.94 1.12 1.17 2.65 1.74 1.54.57 3.4.57t3.2-.43q1.35-.43 2.36-.96t1.77-.96q.76-.44 1.47-.44.96 0 1.43.72l2.2 2.79q-1.27 1.49-2.85 2.49-1.59 1.01-3.31 1.61-1.72.61-3.5.86-1.78.24-3.46.24-3.31 0-6.16-1.1-2.86-1.1-4.96-3.25-2.11-2.15-3.32-5.33t-1.21-7.37q0-3.25 1.05-6.12 1.06-2.86 3.03-4.99 1.96-2.12 4.8-3.36t6.4-1.24q3.01 0 5.55.96t4.37 2.8q1.83 1.85 2.87 4.53t1.04 6.12q0 1.74-.37 2.34-.38.61-1.43.61m30.16-16.87h6.05l-12.62 31.81h-6.94l-12.62-31.81h6.32q.87 0 1.45.41.57.4.76 1.02l6.13 16.99q.5 1.49.87 2.91.37 1.43.65 2.85.31-1.42.68-2.85.38-1.42.9-2.91l6.27-16.99q.21-.62.77-1.02.56-.41 1.33-.41m19.66 9.52h6.23q2.29 0 4-.57 1.7-.58 2.83-1.65 1.14-1.06 1.69-2.6.56-1.53.56-3.43 0-1.79-.56-3.25-.55-1.46-1.67-2.48t-2.82-1.57q-1.71-.54-4.03-.54h-6.23zm-8.34-22.54h14.57q4.49 0 7.78 1.06 3.29 1.05 5.42 2.94 2.14 1.89 3.18 4.53 1.04 2.63 1.04 5.76 0 3.26-1.08 5.97-1.09 2.71-3.26 4.67-2.17 1.95-5.44 3.04-3.27 1.08-7.64 1.08h-6.23v15.78h-8.34zm51.24 12.53q3.54 0 6.43 1.14 2.9 1.15 4.96 3.26 2.07 2.11 3.18 5.15 1.12 3.03 1.12 6.79 0 3.78-1.12 6.82-1.11 3.03-3.18 5.17-2.06 2.14-4.96 3.29-2.89 1.14-6.43 1.14-3.56 0-6.48-1.14-2.91-1.15-4.97-3.29t-3.2-5.17q-1.13-3.04-1.13-6.82 0-3.76 1.13-6.79 1.14-3.04 3.2-5.15t4.97-3.26q2.92-1.14 6.48-1.14m0 26.88q3.97 0 5.88-2.67 1.9-2.67 1.9-7.81 0-5.15-1.9-7.85-1.91-2.69-5.88-2.69-4.03 0-5.97 2.71-1.93 2.71-1.93 7.83 0 5.11 1.93 7.79 1.94 2.69 5.97 2.69m28.3-24.46.47 3.59q1.49-2.85 3.53-4.48 2.05-1.63 4.84-1.63 2.2 0 3.53.97l-.49 5.73q-.16.56-.45.79-.3.23-.79.23-.47 0-1.38-.15-.92-.16-1.78-.16-1.28 0-2.27.38-.99.37-1.78 1.07-.79.69-1.4 1.68-.6 1-1.13 2.27v19.59h-7.65V290.6h4.49q1.18 0 1.64.42.47.42.62 1.51m26.97 30.38q-4.15 0-6.37-2.34-2.21-2.34-2.21-6.47v-17.76h-3.26q-.62 0-1.05-.4-.44-.41-.44-1.21v-3.04l5.12-.84 1.61-8.68q.16-.62.59-.96t1.12-.34h3.96v10.01h8.5v5.46h-8.5v17.24q0 1.48.73 2.32t2 .84q.72 0 1.2-.17t.83-.36q.36-.19.64-.36t.56-.17q.34 0 .55.17.22.17.47.52l2.29 3.71q-1.67 1.4-3.84 2.11-2.17.72-4.5.72m54.69-41.11-2.08 3.94q-.37.65-.79.94-.42.3-1.04.3-.65 0-1.41-.48t-1.81-1.07q-1.06-.59-2.47-1.07t-3.33-.48q-1.73 0-3.04.42-1.3.41-2.18 1.16-.89.74-1.32 1.78t-.43 2.28q0 1.58.88 2.63.88 1.06 2.34 1.8 1.46.75 3.32 1.33 1.86.59 3.81 1.26t3.81 1.55 3.32 2.23 2.34 3.3q.88 1.96.88 4.75 0 3.03-1.03 5.69-1.04 2.65-3.04 4.61-2 1.97-4.88 3.1-2.89 1.14-6.61 1.14-2.14 0-4.21-.42-2.08-.42-3.99-1.2-1.9-.77-3.58-1.86-1.67-1.08-2.97-2.41l2.45-4q.31-.44.8-.73.5-.3 1.06-.3.77 0 1.67.64t2.14 1.41q1.24.78 2.9 1.41 1.66.64 3.98.64 3.57 0 5.52-1.69t1.95-4.86q0-1.76-.88-2.88-.89-1.11-2.34-1.87-1.46-.76-3.32-1.29t-3.78-1.15-3.78-1.48q-1.86-.87-3.32-2.27-1.46-1.39-2.34-3.49-.88-2.09-.88-5.16 0-2.45.97-4.77.98-2.33 2.84-4.12 1.86-1.8 4.59-2.89 2.72-1.08 6.26-1.08 3.97 0 7.31 1.24 3.35 1.24 5.71 3.47m31.65 12.74-2.02 2.79q-.34.44-.66.68-.33.25-.95.25-.59 0-1.14-.36-.56-.35-1.34-.8-.77-.45-1.84-.81-1.07-.35-2.65-.35-2.02 0-3.54.72-1.52.73-2.52 2.1-1.01 1.36-1.51 3.3-.49 1.94-.49 4.39 0 2.54.54 4.52t1.57 3.33q1.02 1.35 2.48 2.05 1.45.7 3.28.7t2.96-.45 1.91-.99q.77-.55 1.35-1 .57-.45 1.28-.45.93 0 1.4.72l2.2 2.79q-1.27 1.49-2.76 2.49-1.49 1.01-3.08 1.61-1.6.61-3.29.86-1.69.24-3.36.24-2.95 0-5.55-1.1-2.61-1.1-4.56-3.2-1.95-2.11-3.08-5.17-1.14-3.05-1.14-6.95 0-3.51 1.01-6.5t2.96-5.18q1.96-2.18 4.84-3.42t6.63-1.24q3.57 0 6.25 1.14 2.68 1.15 4.82 3.29m11.84-2.01.47 3.59q1.48-2.85 3.53-4.48t4.84-1.63q2.2 0 3.53.97l-.5 5.73q-.15.56-.45.79-.29.23-.79.23-.46 0-1.38-.15-.91-.16-1.78-.16-1.27 0-2.26.38-.99.37-1.78 1.07-.79.69-1.4 1.68-.6 1-1.13 2.27v19.59h-7.66V290.6h4.5q1.18 0 1.64.42.47.42.62 1.51m22.41 10.32h14.45q0-1.49-.42-2.81-.42-1.31-1.25-2.31-.84-.99-2.13-1.56-1.28-.58-2.99-.58-3.32 0-5.22 1.9-1.91 1.89-2.44 5.36m19.53 4.62h-19.68q.19 2.45.87 4.23t1.8 2.94q1.11 1.17 2.65 1.74 1.53.57 3.39.57t3.21-.43 2.36-.96q1-.53 1.76-.96.76-.44 1.47-.44.97 0 1.43.72l2.2 2.79q-1.27 1.49-2.85 2.49-1.58 1.01-3.3 1.61-1.72.61-3.5.86-1.79.24-3.46.24-3.32 0-6.17-1.1t-4.96-3.25-3.32-5.33-1.21-7.37q0-3.25 1.06-6.12 1.05-2.86 3.02-4.99 1.97-2.12 4.8-3.36 2.84-1.24 6.41-1.24 3 0 5.55.96 2.54.96 4.37 2.8 1.83 1.85 2.86 4.53 1.04 2.68 1.04 6.12 0 1.74-.37 2.34-.37.61-1.43.61m13.58-4.62h14.45q0-1.49-.42-2.81-.42-1.31-1.26-2.31-.83-.99-2.12-1.56-1.29-.58-2.99-.58-3.32 0-5.22 1.9-1.91 1.89-2.44 5.36m19.53 4.62h-19.68q.18 2.45.87 4.23.68 1.78 1.79 2.94 1.12 1.17 2.65 1.74 1.54.57 3.4.57t3.21-.43 2.35-.96q1.01-.53 1.77-.96.76-.44 1.47-.44.96 0 1.43.72l2.2 2.79q-1.27 1.49-2.85 2.49-1.58 1.01-3.3 1.61-1.72.61-3.51.86-1.78.24-3.45.24-3.32 0-6.17-1.1t-4.96-3.25-3.32-5.33-1.21-7.37q0-3.25 1.06-6.12 1.05-2.86 3.02-4.99 1.97-2.12 4.8-3.36 2.84-1.24 6.4-1.24 3.01 0 5.55.96 2.55.96 4.37 2.8 1.83 1.85 2.87 4.53t1.04 6.12q0 1.74-.37 2.34-.37.61-1.43.61m14.17-15.47.53 2.51q.96-.96 2.03-1.78t2.26-1.4q1.19-.57 2.56-.9 1.36-.32 2.97-.32 2.61 0 4.62.88 2.02.88 3.37 2.48 1.34 1.6 2.04 3.81.7 2.22.7 4.89v20.24h-7.66v-20.24q0-2.92-1.33-4.51-1.33-1.6-4.06-1.6-1.99 0-3.72.9-1.74.9-3.29 2.45v23h-7.65V290.6h4.68q1.48 0 1.95 1.4m63.64 24.67h8.06v5.74h-24.8v-5.74h9.09v-26.13q0-1.55.09-3.19l-6.45 5.39q-.56.44-1.1.55-.54.1-1.02.01t-.86-.32q-.37-.24-.55-.52l-2.42-3.31 13.67-11.63h6.29z"/></svg>