<svg xmlns="http://www.w3.org/2000/svg" width="800" height="600" viewBox="0 0 800 600"><rect width="100%" height="100%" fill="#374151"/><path fill="#ffffff" d="M171.885 266.365v54.95h-10.26v-54.95zm20.18 54.95h-9.39v-38.99h5.74q1.82 0 2.39 1.71l.61 2.89q1.03-1.14 2.15-2.09t2.39-1.63q1.28-.69 2.74-1.09t3.21-.4q3.69 0 6.06 2 2.38 1.99 3.55 5.3.92-1.94 2.28-3.33 1.37-1.38 3.01-2.26 1.63-.87 3.47-1.29 1.85-.42 3.71-.42 3.23 0 5.74.99 2.5.99 4.21 2.89t2.61 4.64q.89 2.73.89 6.27v24.81h-9.39v-24.81q0-3.73-1.63-5.61t-4.79-1.88q-1.44 0-2.68.49-1.23.5-2.16 1.43t-1.47 2.34q-.53 1.4-.53 3.23v24.81h-9.42v-24.81q0-3.92-1.58-5.7-1.58-1.79-4.62-1.79-2.05 0-3.82 1.01-1.76 1-3.28 2.75zm74.86-10.07v-6.57q-4.07.19-6.84.7-2.78.51-4.45 1.31t-2.39 1.86q-.72 1.07-.72 2.32 0 2.47 1.46 3.53 1.46 1.07 3.82 1.07 2.89 0 4.99-1.05 2.11-1.04 4.13-3.17m-19.84-20.48-1.67-3q6.73-6.16 16.19-6.16 3.42 0 6.12 1.12 2.69 1.12 4.56 3.12 1.86 1.99 2.83 4.77.97 2.77.97 6.08v24.62h-4.26q-1.33 0-2.05-.4t-1.14-1.61l-.84-2.82q-1.48 1.33-2.89 2.34-1.4 1.01-2.92 1.69-1.52.69-3.25 1.05t-3.82.36q-2.47 0-4.56-.67-2.09-.66-3.61-1.99t-2.36-3.31q-.83-1.97-.83-4.6 0-1.48.49-2.94.5-1.46 1.62-2.79t2.9-2.51q1.79-1.18 4.39-2.05 2.61-.88 6.06-1.43 3.46-.55 7.91-.66v-2.28q0-3.92-1.67-5.8-1.68-1.88-4.83-1.88-2.28 0-3.78.53t-2.64 1.2l-2.07 1.2q-.93.53-2.07.53-.99 0-1.68-.52-.68-.51-1.1-1.19m52.06 10.11q1.75 0 3.04-.48 1.29-.47 2.15-1.31.85-.84 1.29-2.01.44-1.18.44-2.59 0-2.89-1.73-4.58t-5.19-1.69-5.19 1.69q-1.72 1.69-1.72 4.58 0 1.37.43 2.55.44 1.18 1.29 2.03.86.86 2.17 1.33 1.31.48 3.02.48m10.6 22.19q0-1.14-.68-1.86-.68-.73-1.86-1.12-1.18-.4-2.76-.59-1.57-.19-3.34-.29-1.77-.09-3.65-.17t-3.67-.3q-1.55.87-2.52 2.05t-.97 2.73q0 1.03.51 1.92.51.9 1.63 1.54 1.13.65 2.91 1.01 1.79.36 4.37.36 2.62 0 4.52-.4t3.14-1.1q1.23-.7 1.8-1.67t.57-2.11m-1.86-39.41h11.21v3.5q0 1.67-2.01 2.05l-3.5.65q.8 2.01.8 4.4 0 2.89-1.16 5.23t-3.21 3.97-4.85 2.53q-2.79.89-6.02.89-1.14 0-2.2-.11-1.07-.12-2.09-.31-1.83 1.1-1.83 2.47 0 1.18 1.09 1.73 1.08.55 2.87.78 1.78.23 4.06.28 2.28.06 4.68.25 2.39.19 4.67.67 2.28.47 4.07 1.5 1.78 1.02 2.86 2.79 1.09 1.77 1.09 4.54 0 2.59-1.28 5.02-1.27 2.43-3.68 4.33t-5.93 3.06q-3.51 1.16-8 1.16-4.41 0-7.67-.86-3.27-.85-5.44-2.28-2.16-1.42-3.23-3.28-1.06-1.87-1.06-3.88 0-2.74 1.65-4.58t4.54-2.94q-1.56-.8-2.47-2.13t-.91-3.5q0-.87.32-1.8.33-.93.95-1.85.63-.91 1.58-1.73.95-.81 2.24-1.46-2.96-1.59-4.65-4.25t-1.69-6.24q0-2.88 1.15-5.22 1.16-2.34 3.23-3.99 2.08-1.65 4.91-2.53 2.83-.87 6.17-.87 2.51 0 4.71.51 2.21.51 4.03 1.5m24.55 13.68h17.71q0-1.82-.52-3.44-.51-1.61-1.53-2.83-1.03-1.21-2.61-1.92-1.57-.7-3.66-.7-4.07 0-6.41 2.32-2.33 2.32-2.98 6.57m23.94 5.66h-24.13q.23 3.01 1.06 5.19.84 2.19 2.21 3.61 1.37 1.43 3.25 2.13t4.16.7 3.93-.53 2.89-1.18q1.23-.64 2.16-1.18.94-.53 1.81-.53 1.18 0 1.75.88l2.7 3.42q-1.56 1.82-3.5 3.06-1.94 1.23-4.05 1.97t-4.29 1.05q-2.19.3-4.24.3-4.06 0-7.56-1.35t-6.08-3.99-4.07-6.53q-1.48-3.9-1.48-9.03 0-3.99 1.29-7.51 1.3-3.51 3.71-6.11 2.41-2.61 5.89-4.13t7.85-1.52q3.68 0 6.8 1.18 3.11 1.18 5.36 3.44 2.24 2.26 3.51 5.55t1.27 7.5q0 2.13-.45 2.87-.46.74-1.75.74m81.05-36.63h7.72v54.95h-9.01v-35.49q0-2.13.23-4.6l-16.61 31.2q-1.17 2.24-3.61 2.24h-1.44q-2.43 0-3.61-2.24l-16.8-31.31q.12 1.25.19 2.47.08 1.21.08 2.24v35.49h-9.01v-54.95h7.72q.68 0 1.18.04.49.04.89.19t.72.49q.32.35.63.92l16.45 30.51q.65 1.22 1.2 2.51t1.08 2.66q.53-1.41 1.1-2.72t1.22-2.53l16.23-30.43q.3-.57.64-.92.34-.34.74-.49t.9-.19q.49-.04 1.17-.04m18.78 15.96h9.42v38.99h-9.42zm10.71-11.36q0 1.22-.49 2.28-.5 1.06-1.31 1.86-.82.8-1.92 1.27-1.1.48-2.36.48-1.21 0-2.3-.48-1.08-.47-1.88-1.27t-1.27-1.86q-.48-1.06-.48-2.28 0-1.25.48-2.36.47-1.1 1.27-1.9.8-.79 1.88-1.27 1.09-.47 2.3-.47 1.26 0 2.36.47 1.1.48 1.92 1.27.81.8 1.31 1.9.49 1.11.49 2.36m34.2 15.58-2.13 3.38q-.38.61-.79.86-.42.24-1.07.24-.68 0-1.46-.38t-1.81-.85q-1.02-.48-2.33-.86t-3.1-.38q-2.77 0-4.35 1.18t-1.58 3.08q0 1.25.82 2.11.82.85 2.16 1.5 1.35.65 3.06 1.16t3.48 1.12 3.48 1.39 3.06 1.97q1.35 1.2 2.16 2.87.82 1.67.82 4.03 0 2.81-1.01 5.19-1 2.37-2.98 4.1t-4.88 2.7q-2.91.97-6.71.97-2.01 0-3.93-.36t-3.69-1.01-3.27-1.52-2.64-1.9l2.17-3.57q.42-.65.99-.99t1.44-.34 1.65.49q.78.5 1.81 1.07 1.02.57 2.41 1.06t3.52.49q1.67 0 2.86-.4 1.2-.39 1.98-1.04t1.14-1.5q.36-.86.36-1.77 0-1.37-.82-2.24-.81-.87-2.16-1.52t-3.08-1.16-3.53-1.12q-1.81-.61-3.54-1.42-1.73-.82-3.08-2.08-1.34-1.25-2.16-3.07-.82-1.83-.82-4.41 0-2.4.95-4.56.95-2.17 2.79-3.78 1.85-1.62 4.6-2.59 2.76-.97 6.37-.97 4.03 0 7.33 1.33 3.31 1.33 5.51 3.5m33.4 0-2.12 3.38q-.38.61-.8.86-.42.24-1.07.24-.68 0-1.46-.38t-1.8-.85q-1.03-.48-2.34-.86t-3.1-.38q-2.77 0-4.35 1.18t-1.58 3.08q0 1.25.82 2.11.82.85 2.17 1.5t3.06 1.16 3.47 1.12q1.77.61 3.48 1.39t3.06 1.97q1.35 1.2 2.16 2.87.82 1.67.82 4.03 0 2.81-1.01 5.19-1 2.37-2.98 4.1-1.97 1.73-4.88 2.7t-6.71.97q-2.01 0-3.93-.36t-3.69-1.01q-1.76-.65-3.27-1.52-1.5-.87-2.64-1.9l2.17-3.57q.42-.65.99-.99t1.44-.34q.88 0 1.65.49.78.5 1.81 1.07t2.41 1.06q1.39.49 3.52.49 1.67 0 2.87-.4 1.19-.39 1.97-1.04t1.14-1.5q.36-.86.36-1.77 0-1.37-.81-2.24-.82-.87-2.17-1.52t-3.08-1.16-3.53-1.12q-1.81-.61-3.54-1.42-1.72-.82-3.07-2.08-1.35-1.25-2.17-3.07-.82-1.83-.82-4.41 0-2.4.95-4.56.95-2.17 2.8-3.78 1.84-1.62 4.59-2.59 2.76-.97 6.37-.97 4.03 0 7.33 1.33 3.31 1.33 5.51 3.5m7.79-4.22h9.43v38.99h-9.43zm10.72-11.36q0 1.22-.49 2.28-.5 1.06-1.32 1.86-.81.8-1.91 1.27-1.11.48-2.36.48-1.22 0-2.3-.48-1.08-.47-1.88-1.27t-1.27-1.86q-.48-1.06-.48-2.28 0-1.25.48-2.36.47-1.1 1.27-1.9.8-.79 1.88-1.27 1.08-.47 2.3-.47 1.25 0 2.36.47 1.1.48 1.91 1.27.82.8 1.32 1.9.49 1.11.49 2.36m16.42 13.07.64 3.08q1.18-1.18 2.49-2.18 1.31-1.01 2.77-1.71 1.47-.71 3.14-1.11t3.65-.4q3.19 0 5.66 1.09 2.47 1.08 4.12 3.04 1.66 1.95 2.51 4.67.86 2.72.86 5.99v24.81h-9.39v-24.81q0-3.58-1.63-5.53-1.64-1.96-4.98-1.96-2.43 0-4.56 1.1t-4.03 3v28.2h-9.39v-38.99h5.74q1.83 0 2.4 1.71m48.98 16.84q1.75 0 3.04-.48 1.29-.47 2.14-1.31.86-.84 1.3-2.01.43-1.18.43-2.59 0-2.89-1.73-4.58-1.72-1.69-5.18-1.69t-5.19 1.69-1.73 4.58q0 1.37.44 2.55t1.29 2.03q.86.86 2.17 1.33 1.31.48 3.02.48m10.6 22.19q0-1.14-.68-1.86-.69-.73-1.87-1.12-1.17-.4-2.75-.59t-3.35-.29q-1.76-.09-3.64-.17t-3.67-.3q-1.56.87-2.53 2.05t-.97 2.73q0 1.03.52 1.92.51.9 1.63 1.54 1.12.65 2.91 1.01 1.78.36 4.37.36 2.62 0 4.52-.4t3.13-1.1q1.24-.7 1.81-1.67t.57-2.11m-1.86-39.41h11.21v3.5q0 1.67-2.02 2.05l-3.49.65q.8 2.01.8 4.4 0 2.89-1.16 5.23t-3.21 3.97q-2.06 1.63-4.85 2.53-2.79.89-6.02.89-1.14 0-2.21-.11-1.06-.12-2.09-.31-1.82 1.1-1.82 2.47 0 1.18 1.08 1.73 1.09.55 2.87.78 1.79.23 4.07.28 2.28.06 4.67.25 2.4.19 4.68.67 2.28.47 4.06 1.5 1.79 1.02 2.87 2.79t1.08 4.54q0 2.59-1.27 5.02t-3.69 4.33q-2.41 1.9-5.92 3.06-3.52 1.16-8 1.16-4.41 0-7.68-.86-3.27-.85-5.43-2.28-2.17-1.42-3.23-3.28-1.07-1.87-1.07-3.88 0-2.74 1.66-4.58 1.65-1.84 4.54-2.94-1.56-.8-2.47-2.13t-.91-3.5q0-.87.32-1.8t.95-1.85q.63-.91 1.58-1.73.95-.81 2.24-1.46-2.97-1.59-4.66-4.25t-1.69-6.24q0-2.88 1.16-5.22t3.23-3.99 4.9-2.53q2.83-.87 6.18-.87 2.51 0 4.71.51t4.03 1.5"/></svg>