<svg xmlns="http://www.w3.org/2000/svg" width="800" height="600" viewBox="0 0 800 600"><rect width="100%" height="100%" fill="#ff00ff"/><path fill="#0a0a0a" d="M172.67 316.68h18.78v7.21h-27.53v-47h8.75zm24.01-26.13h8.06v33.34h-8.06zm9.17-9.72q0 1.04-.42 1.95-.43.91-1.13 1.59-.69.68-1.64 1.09-.94.41-2.01.41-1.04 0-1.97-.41-.92-.41-1.61-1.09-.68-.68-1.09-1.59-.4-.91-.4-1.95 0-1.07.4-2.02.41-.94 1.09-1.62.69-.69 1.61-1.09.93-.41 1.97-.41 1.07 0 2.01.41.95.4 1.64 1.09.7.68 1.13 1.62.42.95.42 2.02m18.2 43.58q-4.36 0-6.68-2.45-2.32-2.46-2.32-6.78v-18.62h-3.42q-.65 0-1.1-.43-.46-.42-.46-1.26v-3.19l5.37-.88 1.69-9.1q.16-.65.61-1 .46-.36 1.17-.36h4.16v10.5h8.91v5.72h-8.91v18.07q0 1.56.77 2.43.76.88 2.09.88.75 0 1.25-.18.51-.18.88-.37.38-.2.67-.37.29-.18.58-.18.36 0 .59.18.23.17.49.53l2.4 3.9q-1.75 1.46-4.03 2.21-2.27.75-4.71.75m24.18 0q-4.36 0-6.68-2.45-2.32-2.46-2.32-6.78v-18.62h-3.42q-.65 0-1.1-.43-.46-.42-.46-1.26v-3.19l5.37-.88 1.69-9.1q.16-.65.61-1 .46-.36 1.17-.36h4.16v10.5h8.91v5.72h-8.91v18.07q0 1.56.77 2.43.76.88 2.09.88.75 0 1.25-.18.51-.18.88-.37.38-.2.67-.37.29-.18.58-.18.36 0 .59.18.23.17.49.53l2.4 3.9q-1.75 1.46-4.03 2.21-2.27.75-4.71.75m13.16-48.82h8.03v48.3h-8.03zm22.39 27.79h15.15q0-1.56-.44-2.94t-1.32-2.42q-.87-1.04-2.22-1.64t-3.14-.6q-3.48 0-5.48 1.98-1.99 1.98-2.55 5.62m20.48 4.84h-20.64q.2 2.57.91 4.44.72 1.87 1.89 3.09t2.77 1.82q1.61.6 3.56.6t3.37-.45q1.41-.46 2.47-1.01 1.05-.56 1.85-1.01t1.54-.45q1.01 0 1.5.74l2.31 2.93q-1.34 1.56-2.99 2.61-1.66 1.06-3.47 1.69-1.8.64-3.67.9t-3.62.26q-3.48 0-6.47-1.16-2.99-1.15-5.2-3.41t-3.48-5.59q-1.26-3.33-1.26-7.72 0-3.41 1.1-6.42 1.11-3 3.17-5.23t5.04-3.52q2.97-1.31 6.71-1.31 3.15 0 5.82 1.01 2.66 1.01 4.58 2.94 1.92 1.94 3 4.75 1.09 2.81 1.09 6.42 0 1.82-.39 2.45t-1.49.63m33.7 8.46h18.79v7.21h-27.53v-47h8.74zm30.1-13.3h15.14q0-1.56-.44-2.94t-1.31-2.42q-.88-1.04-2.23-1.64t-3.14-.6q-3.47 0-5.47 1.98t-2.55 5.62m20.47 4.84h-20.64q.2 2.57.91 4.44.72 1.87 1.89 3.09t2.78 1.82 3.56.6 3.36-.45q1.41-.46 2.47-1.01 1.06-.56 1.85-1.01.8-.45 1.55-.45 1 0 1.49.74l2.31 2.93q-1.33 1.56-2.99 2.61-1.66 1.06-3.46 1.69-1.81.64-3.68.9-1.86.26-3.62.26-3.48 0-6.47-1.16-2.99-1.15-5.2-3.41t-3.47-5.59q-1.27-3.33-1.27-7.72 0-3.41 1.1-6.42 1.11-3 3.17-5.23 2.07-2.23 5.04-3.52 2.97-1.31 6.71-1.31 3.15 0 5.82 1.01 2.66 1.01 4.58 2.94 1.92 1.94 3.01 4.75t1.09 6.42q0 1.82-.39 2.45t-1.5.63m15.93 15.67h-8.03v-33.34h4.91q1.56 0 2.04 1.46l.52 2.47q.88-.98 1.84-1.79t2.05-1.4q1.09-.58 2.34-.92 1.25-.35 2.74-.35 3.16 0 5.19 1.71t3.04 4.53q.78-1.65 1.95-2.84t2.56-1.93q1.4-.75 2.98-1.11 1.57-.36 3.17-.36 2.76 0 4.9.85 2.15.84 3.61 2.47 1.46 1.62 2.23 3.96.76 2.34.76 5.37v21.22h-8.03v-21.22q0-3.19-1.39-4.8-1.4-1.61-4.1-1.61-1.23 0-2.29.43-1.06.42-1.85 1.22-.8.79-1.25 2-.46 1.2-.46 2.76v21.22h-8.06v-21.22q0-3.35-1.35-4.88t-3.95-1.53q-1.75 0-3.26.87-1.51.86-2.81 2.35zm61.16-33.87q3.71 0 6.74 1.21 3.04 1.2 5.2 3.41 2.17 2.21 3.34 5.39 1.17 3.19 1.17 7.12 0 3.97-1.17 7.15-1.17 3.19-3.34 5.43-2.16 2.24-5.2 3.44-3.03 1.21-6.74 1.21-3.74 0-6.79-1.21-3.06-1.2-5.22-3.44t-3.35-5.43q-1.18-3.18-1.18-7.15 0-3.93 1.18-7.12 1.19-3.18 3.35-5.39t5.22-3.41q3.05-1.21 6.79-1.21m0 28.18q4.16 0 6.16-2.79 2-2.8 2-8.19 0-5.4-2-8.22-2-2.83-6.16-2.83-4.22 0-6.26 2.84-2.03 2.84-2.03 8.21 0 5.36 2.03 8.17 2.04 2.81 6.26 2.81m29.54-26.19.56 2.63q1-1.01 2.12-1.87 1.13-.86 2.38-1.46t2.68-.94q1.43-.35 3.12-.35 2.73 0 4.84.93t3.53 2.6q1.41 1.67 2.14 4 .73 2.32.73 5.12v21.22h-8.02v-21.22q0-3.06-1.4-4.73-1.4-1.68-4.26-1.68-2.08 0-3.9.95-1.82.94-3.44 2.56v24.12h-8.03v-33.34h4.91q1.56 0 2.04 1.46m56.65 14.13h14.95l-5.72-15.63q-.42-1.04-.88-2.47-.45-1.43-.91-3.09-.42 1.66-.87 3.11-.46 1.45-.88 2.52zm11.93-29.25 18.46 47h-6.76q-1.14 0-1.85-.57-.72-.57-1.08-1.41l-3.51-9.59h-19.46l-3.51 9.59q-.26.74-1.01 1.36t-1.85.62h-6.83l18.49-47zm32.08 23.63h6.53q2.4 0 4.19-.6t2.97-1.72q1.19-1.12 1.78-2.73.58-1.61.58-3.59 0-1.89-.58-3.42-.59-1.52-1.76-2.59-1.17-1.08-2.96-1.65-1.78-.56-4.22-.56h-6.53zm-8.75-23.63h15.28q4.71 0 8.16 1.11 3.44 1.1 5.68 3.09 2.25 1.98 3.33 4.74 1.09 2.76 1.09 6.05 0 3.41-1.13 6.25-1.14 2.85-3.42 4.89-2.27 2.05-5.7 3.19t-8.01 1.14h-6.53v16.54h-8.75zm49.01 0v47h-8.77v-47z"/></svg>