<svg xmlns="http://www.w3.org/2000/svg" width="800" height="600" viewBox="0 0 800 600"><rect width="100%" height="100%" fill="#00ffff"/><path fill="#0a0a0a" d="m181.565 287.35-1.48 2.79q-.26.47-.56.68-.3.2-.74.2-.46 0-1-.34t-1.28-.76q-.75-.41-1.75-.75-1-.35-2.37-.35-1.23 0-2.15.3-.93.3-1.56.83-.62.52-.93 1.26t-.31 1.62q0 1.12.63 1.87t1.66 1.27q1.03.53 2.35.95t2.71.89 2.71 1.1 2.35 1.59q1.03.95 1.66 2.34.63 1.38.63 3.36 0 2.16-.74 4.04t-2.16 3.28q-1.41 1.4-3.46 2.2t-4.69.8q-1.51 0-2.99-.3-1.47-.29-2.83-.84-1.35-.55-2.54-1.32-1.18-.77-2.11-1.72l1.74-2.84q.22-.3.57-.51t.75-.21q.55 0 1.19.45t1.52 1 2.05 1q1.18.45 2.83.45 2.53 0 3.92-1.2 1.38-1.2 1.38-3.44 0-1.25-.62-2.05-.63-.79-1.67-1.33-1.03-.54-2.35-.91t-2.68-.81q-1.37-.44-2.69-1.06t-2.35-1.61q-1.04-.99-1.66-2.47-.63-1.49-.63-3.66 0-1.74.69-3.39.7-1.65 2.02-2.93 1.32-1.27 3.25-2.04 1.94-.77 4.45-.77 2.81 0 5.19.88 2.37.88 4.05 2.46m9.15 14.94h10.25q0-1.06-.3-1.99-.29-.94-.89-1.64-.59-.71-1.5-1.11-.92-.41-2.13-.41-2.35 0-3.7 1.34-1.36 1.34-1.73 3.81m13.86 3.28h-13.97q.13 1.73.61 3 .49 1.26 1.28 2.09.79.82 1.88 1.23t2.41.41 2.28-.31q.95-.31 1.67-.68.71-.38 1.25-.68.54-.31 1.05-.31.68 0 1.01.5l1.56 1.98q-.9 1.06-2.02 1.78-1.12.71-2.34 1.14-1.23.43-2.49.6-1.27.18-2.45.18-2.36 0-4.38-.78-2.03-.78-3.52-2.31-1.5-1.53-2.36-3.78-.85-2.26-.85-5.23 0-2.31.74-4.34.75-2.04 2.15-3.55 1.4-1.5 3.41-2.38t4.54-.88q2.14 0 3.94.68t3.1 1.99 2.04 3.21q.73 1.9.73 4.35 0 1.23-.26 1.66t-1.01.43m22.94-9.18-1.43 1.98q-.24.31-.47.49-.23.17-.67.17-.42 0-.81-.25-.4-.25-.95-.57t-1.31-.58q-.76-.25-1.88-.25-1.43 0-2.51.52t-1.79 1.48q-.72.97-1.07 2.35-.35 1.37-.35 3.11 0 1.8.39 3.21.38 1.41 1.11 2.37.72.95 1.76 1.45 1.03.49 2.33.49t2.1-.32q.8-.31 1.35-.7.55-.38.96-.7t.91-.32q.66 0 .99.5l1.56 1.98q-.9 1.06-1.95 1.78-1.06.71-2.19 1.14-1.14.43-2.33.6-1.2.18-2.39.18-2.09 0-3.94-.78t-3.23-2.28q-1.39-1.49-2.19-3.66-.81-2.17-.81-4.94 0-2.49.72-4.61.71-2.12 2.1-3.67t3.43-2.43q2.05-.88 4.71-.88 2.53 0 4.43.81 1.91.81 3.42 2.33m13.6-3.14q2.51 0 4.57.81 2.05.81 3.52 2.31 1.46 1.5 2.25 3.65.79 2.16.79 4.82 0 2.68-.79 4.84t-2.25 3.67q-1.47 1.52-3.52 2.34-2.06.81-4.57.81-2.53 0-4.6-.81-2.07-.82-3.53-2.34-1.46-1.51-2.26-3.67-.81-2.16-.81-4.84 0-2.66.81-4.82.8-2.15 2.26-3.65t3.53-2.31 4.6-.81m0 19.07q2.82 0 4.17-1.89t1.35-5.55q0-3.65-1.35-5.56-1.35-1.92-4.17-1.92-2.86 0-4.23 1.93-1.38 1.92-1.38 5.55t1.38 5.54q1.37 1.9 4.23 1.9m20-17.73.37 1.78q.68-.68 1.44-1.26.76-.59 1.61-.99.85-.41 1.81-.64.97-.23 2.12-.23 1.84 0 3.27.62 1.43.63 2.39 1.76.96 1.14 1.45 2.71.5 1.57.5 3.46v14.37h-5.44V301.8q0-2.06-.94-3.2-.95-1.13-2.88-1.13-1.41 0-2.64.64-1.24.64-2.34 1.74v16.32h-5.43V293.6h3.32q1.06 0 1.39.99m34.27 14.89v-10.12q-.92-1.12-2.01-1.58t-2.34-.46q-1.23 0-2.22.46t-1.7 1.4q-.7.93-1.08 2.37-.37 1.44-.37 3.4 0 1.98.32 3.36.32 1.37.91 2.24.6.87 1.45 1.25.86.39 1.92.39 1.69 0 2.88-.71 1.19-.7 2.24-2m0-26h5.44v32.69h-3.32q-1.08 0-1.37-.99l-.46-2.18q-1.36 1.56-3.13 2.53-1.78.97-4.13.97-1.85 0-3.39-.77t-2.65-2.23q-1.11-1.47-1.71-3.62-.61-2.16-.61-4.93 0-2.51.68-4.66.68-2.16 1.96-3.74 1.28-1.59 3.06-2.48t4-.89q1.89 0 3.24.59 1.34.6 2.39 1.61zm44.2 25.19q.49 0 .86.37l2.33 2.53q-1.93 2.4-4.76 3.68-2.83 1.27-6.79 1.27-3.54 0-6.37-1.21-2.82-1.21-4.83-3.36-2-2.16-3.06-5.15-1.07-2.99-1.07-6.54 0-3.58 1.14-6.56 1.15-2.98 3.23-5.14 2.07-2.16 4.96-3.35 2.88-1.2 6.38-1.2 3.47 0 6.17 1.14 2.69 1.14 4.58 2.99l-1.98 2.75q-.17.27-.45.46-.27.2-.76.2-.33 0-.68-.18-.35-.19-.77-.47-.42-.27-.97-.6t-1.27-.61q-.73-.27-1.68-.46-.96-.19-2.22-.19-2.13 0-3.9.76t-3.05 2.2q-1.27 1.44-1.98 3.52-.7 2.08-.7 4.74 0 2.69.76 4.78t2.05 3.52q1.3 1.43 3.06 2.19t3.79.76q1.21 0 2.19-.14.97-.13 1.8-.41.82-.29 1.56-.74t1.46-1.11q.22-.2.47-.32.24-.12.5-.12m11.84-25.19v12.54q1.32-1.23 2.9-2 1.59-.77 3.72-.77 1.85 0 3.28.62 1.43.63 2.39 1.76.95 1.14 1.45 2.71.49 1.57.49 3.46v14.37h-5.43V301.8q0-2.06-.95-3.2-.94-1.13-2.88-1.13-1.41 0-2.64.64t-2.33 1.74v16.32h-5.44v-32.69zm31.3 26.86v-3.81q-2.35.11-3.96.41-1.6.3-2.57.76t-1.39 1.08q-.41.61-.41 1.34 0 1.43.84 2.05.85.61 2.21.61 1.68 0 2.9-.6 1.22-.61 2.38-1.84m-11.48-11.86-.97-1.74q3.9-3.56 9.37-3.56 1.98 0 3.55.65 1.56.65 2.64 1.8 1.07 1.16 1.64 2.76.56 1.61.56 3.52v14.26h-2.47q-.77 0-1.19-.23-.41-.23-.66-.94l-.48-1.62q-.86.77-1.67 1.35-.82.58-1.7.98-.88.39-1.88.6t-2.21.21q-1.43 0-2.64-.38-1.21-.39-2.09-1.16t-1.36-1.91q-.49-1.15-.49-2.66 0-.86.29-1.71t.94-1.62q.64-.77 1.68-1.45 1.03-.68 2.54-1.19 1.51-.5 3.51-.82t4.57-.39v-1.32q0-2.26-.96-3.35-.97-1.09-2.8-1.09-1.32 0-2.19.31t-1.53.69q-.66.39-1.19.69-.54.31-1.2.31-.58 0-.97-.29-.4-.3-.64-.7m26.6-3.89.37 1.78q.68-.68 1.44-1.26.76-.59 1.61-.99.85-.41 1.81-.64.97-.23 2.12-.23 1.84 0 3.27.62 1.43.63 2.39 1.76.96 1.14 1.45 2.71.5 1.57.5 3.46v14.37h-5.44V301.8q0-2.06-.94-3.2-.95-1.13-2.88-1.13-1.41 0-2.64.64-1.24.64-2.34 1.74v16.32h-5.43V293.6h3.32q1.06 0 1.39.99m37.71 1.8-1.43 1.98q-.25.31-.48.49-.23.17-.67.17-.42 0-.81-.25-.4-.25-.95-.57t-1.31-.58q-.76-.25-1.88-.25-1.43 0-2.51.52-1.07.52-1.79 1.48-.71.97-1.07 2.35-.35 1.37-.35 3.11 0 1.8.39 3.21.38 1.41 1.11 2.37.72.95 1.76 1.45 1.03.49 2.33.49t2.1-.32q.8-.31 1.35-.7.55-.38.96-.7t.91-.32q.66 0 .99.5l1.57 1.98q-.91 1.06-1.96 1.78-1.06.71-2.19 1.14t-2.33.6q-1.2.18-2.39.18-2.09 0-3.94-.78t-3.23-2.28q-1.39-1.49-2.19-3.66t-.8-4.94q0-2.49.71-4.61.72-2.12 2.1-3.67 1.39-1.55 3.43-2.43 2.05-.88 4.71-.88 2.53 0 4.44.81 1.9.81 3.42 2.33m7.89 5.9h10.26q0-1.06-.3-1.99-.3-.94-.89-1.64-.6-.71-1.51-1.11-.91-.41-2.12-.41-2.36 0-3.71 1.34t-1.73 3.81m13.86 3.28h-13.97q.14 1.73.62 3 .48 1.26 1.28 2.09.79.82 1.88 1.23t2.41.41 2.27-.31q.96-.31 1.68-.68.71-.38 1.25-.68.54-.31 1.04-.31.69 0 1.02.5l1.56 1.98q-.9 1.06-2.03 1.78-1.12.71-2.34 1.14t-2.48.6q-1.27.18-2.46.18-2.35 0-4.38-.78-2.02-.78-3.52-2.31-1.49-1.53-2.35-3.78-.86-2.26-.86-5.23 0-2.31.75-4.34.75-2.04 2.15-3.55 1.39-1.5 3.41-2.38 2.01-.88 4.54-.88 2.13 0 3.94.68 1.8.68 3.1 1.99t2.03 3.21q.74 1.9.74 4.35 0 1.23-.26 1.66-.27.43-1.02.43m22.82-5.22h4.42q1.63 0 2.84-.4 1.21-.41 2.01-1.17t1.2-1.85.4-2.43q0-1.28-.4-2.31t-1.19-1.76-2-1.11q-1.21-.39-2.86-.39h-4.42zm-5.92-15.99h10.34q3.19 0 5.52.75 2.33.74 3.85 2.09 1.52 1.34 2.26 3.21.73 1.87.73 4.09 0 2.31-.77 4.24-.77 1.92-2.31 3.31-1.54 1.38-3.86 2.15t-5.42.77h-4.42v11.2h-5.92zm26.44-.88h5.44v32.69h-5.44zm22.8 26.86v-3.81q-2.36.11-3.96.41-1.61.3-2.58.76t-1.38 1.08q-.42.61-.42 1.34 0 1.43.85 2.05.84.61 2.21.61 1.67 0 2.89-.6 1.22-.61 2.39-1.84m-11.49-11.86-.97-1.74q3.9-3.56 9.38-3.56 1.98 0 3.54.65t2.64 1.8q1.08 1.16 1.64 2.76.56 1.61.56 3.52v14.26h-2.47q-.77 0-1.18-.23-.42-.23-.66-.94l-.49-1.62q-.86.77-1.67 1.35t-1.69.98q-.88.39-1.88.6-1.01.21-2.22.21-1.43 0-2.64-.38-1.21-.39-2.09-1.16t-1.36-1.91q-.48-1.15-.48-2.66 0-.86.28-1.71.29-.85.94-1.62t1.68-1.45 2.54-1.19q1.51-.5 3.51-.82t4.58-.39v-1.32q0-2.26-.97-3.35t-2.8-1.09q-1.32 0-2.18.31-.87.31-1.53.69-.66.39-1.2.69-.54.31-1.2.31-.57 0-.97-.29-.4-.3-.64-.7m29.42 18.04q-2.95 0-4.52-1.66-1.58-1.66-1.58-4.59v-12.6h-2.31q-.44 0-.75-.29-.3-.28-.3-.86v-2.15l3.63-.6 1.14-6.16q.11-.44.42-.68t.79-.24h2.82v7.11h6.02v3.87h-6.02v12.23q0 1.06.51 1.65.52.59 1.42.59.51 0 .85-.12t.59-.25q.26-.13.45-.25.2-.12.4-.12.24 0 .4.12.15.12.33.36l1.62 2.64q-1.18.99-2.72 1.5-1.54.5-3.19.5m15.86-.35h-5.44v-18.48l-1.95-.31q-.64-.13-1.03-.45-.38-.32-.38-.91v-2.22h3.36v-1.68q0-1.93.59-3.47.58-1.54 1.67-2.62t2.65-1.65 3.52-.57q1.56 0 2.9.42l-.11 2.72q-.02.31-.17.5-.16.19-.41.29-.25.09-.58.13-.33.03-.71.03-.96 0-1.72.21t-1.29.73q-.53.51-.8 1.36-.28.85-.28 2.1v1.5h5.88v3.87h-5.7zm18.74-22.92q2.51 0 4.57.81 2.05.81 3.52 2.31 1.46 1.5 2.25 3.65.79 2.16.79 4.82 0 2.68-.79 4.84t-2.25 3.67q-1.47 1.52-3.52 2.34-2.06.81-4.57.81-2.53 0-4.6-.81-2.06-.82-3.53-2.34-1.46-1.51-2.26-3.67-.81-2.16-.81-4.84 0-2.66.81-4.82.8-2.15 2.26-3.65 1.47-1.5 3.53-2.31 2.07-.81 4.6-.81m0 19.07q2.82 0 4.17-1.89t1.35-5.55q0-3.65-1.35-5.56-1.35-1.92-4.17-1.92-2.86 0-4.23 1.93-1.38 1.92-1.38 5.55t1.38 5.54q1.37 1.9 4.23 1.9m20.09-17.36.33 2.55q1.05-2.02 2.51-3.17 1.45-1.16 3.43-1.16 1.56 0 2.51.68l-.36 4.07q-.11.4-.32.56-.2.17-.56.17-.33 0-.98-.11-.64-.11-1.26-.11-.9 0-1.61.26-.7.27-1.26.76-.56.5-.99 1.2t-.8 1.61v13.9h-5.44V293.6h3.19q.84 0 1.17.3.33.29.44 1.06m17.05 21.21h-5.44V293.6h3.33q1.05 0 1.38.99l.35 1.67q.6-.66 1.25-1.21t1.38-.95q.74-.39 1.59-.62.84-.23 1.86-.23 2.13 0 3.5 1.15 1.38 1.16 2.06 3.07.53-1.12 1.32-1.93.79-.8 1.74-1.3.95-.51 2.01-.75 1.07-.24 2.15-.24 1.87 0 3.32.57t2.44 1.67 1.51 2.68q.52 1.59.52 3.63v14.37h-5.44V301.8q0-2.15-.94-3.24-.95-1.09-2.78-1.09-.83 0-1.55.29-.71.28-1.25.82t-.85 1.35q-.31.82-.31 1.87v14.37h-5.45V301.8q0-2.26-.92-3.3-.91-1.03-2.67-1.03-1.19 0-2.21.58-1.02.59-1.9 1.6z"/></svg>